<svg xmlns="http://www.w3.org/2000/svg" viewBox="0 0 200 200" width="200" height="200" style="shape-rendering:geometricPrecision;text-rendering:geometricPrecision;image-rendering:optimizeQuality;fill-rule:evenodd;clip-rule:evenodd"><path style="opacity:.996" fill="#9aaea2" d="M90.5-.5h19c49.201 8.533 79.201 37.2 90 86v28c-9.667 47.667-38.333 76.333-86 86h-28c-48.8-10.799-77.467-40.799-86-90v-19c8.667-52 39-82.333 91-91Z"/><path style="opacity:1" fill="#5b5a5a" d="M137.5 27.5c3.928 2.091 7.094 5.092 9.5 9 1.453 5.483 1.953 10.817 1.5 16-1.302 2.322-3.302 3.655-6 4 1.438-4.441-.229-7.108-5-8-.963.47-.963 1.136 0 2a24.93 24.93 0 0 1-8-1c2.306-1.884 2.139-3.884-.5-6-1.417.578-2.25 1.578-2.5 3-1.208.734-2.541 1.067-4 1 .15-3.661-1.35-4.661-4.5-3a40.911 40.911 0 0 0-.5 9h-5c-1.145-1.293-.811-2.46 1-3.5a9.457 9.457 0 0 1-1.5-2.5 81.819 81.819 0 0 1-2.5 3v-3c.106-3.894.106-7.894 0-12a346.069 346.069 0 0 1-2 8c.174-4.521-.493-4.855-2-1 .363.684.696 1.35 1 2-2.372-1.648-3.706-.981-4 2-1.086-.12-1.753-.787-2-2 .654-1.315.654-2.315 0-3 1.954-5.727 5.287-10.56 10-14.5l-2-1a18.95 18.95 0 0 1 5-3c5.915-1.527 11.915-1.86 18-1 2.523 1.36 4.523 3.193 6 5.5Z"/><path style="opacity:1" fill="#7a7f4b" d="M133.5 36.5h6c-.495 3.497-2.328 4.497-5.5 3a4.934 4.934 0 0 1-.5-3Z"/><path style="opacity:1" fill="#74774c" d="M125.5 36.5c1.149.291 1.816 1.124 2 2.5-.415 3.106-1.415 3.272-3 .5-1.698 1.18-3.365 1.18-5 0a14.337 14.337 0 0 1 6-3Z"/><path style="opacity:1" fill="#777a4d" d="M141.5 36.5c1.347.671 2.514.671 3.5 0a4.458 4.458 0 0 1 1.5 2c-3.461 3.274-5.127 2.607-5-2Z"/><path style="opacity:1" fill="#7b814a" d="M111.5 39.5h5c-.246 2.97-1.912 4.303-5 4v-4Z"/><path style="opacity:1" fill="#f6f0de" d="M107.5 43.5c0 .667-.333 1-1 1a44.147 44.147 0 0 0-1-2c1.507-3.855 2.174-3.521 2 1Z"/><path style="opacity:1" fill="#3f3a48" d="M137.5 27.5c6.11 1.81 10.277 5.81 12.5 12 .945 4.56.445 8.894-1.5 13 .453-5.183-.047-10.517-1.5-16-2.406-3.908-5.572-6.909-9.5-9Z"/><path style="opacity:1" fill="#817a84" d="M109.5 47.5c-.722-.417-1.222-1.084-1.5-2-1.011.837-2.178 1.17-3.5 1l2-2c.667 0 1-.333 1-1a346.069 346.069 0 0 0 2-8c.106 4.106.106 8.106 0 12Z"/><path style="opacity:1" fill="#9b9198" d="m129.5 49.5-2-1c2.739-2.523 2.406-3.19-1-2 .25-1.422 1.083-2.422 2.5-3 2.639 2.116 2.806 4.116.5 6Z"/><path style="opacity:1" fill="#e2ddd2" d="M109.5 47.5v3h-5v-4c1.322.17 2.489-.163 3.5-1 .278.916.778 1.583 1.5 2Z"/><path style="opacity:1" fill="#352f3a" d="M127.5 48.5c-.904.709-1.237 1.709-1 3-1.291-.237-2.291.096-3 1h-3c.02-1.643-.647-2.976-2-4 .825-2.2 2.158-2.534 4-1 1.459.067 2.792-.266 4-1 3.406-1.19 3.739-.523 1 2Z"/><path style="opacity:1" fill="#2f2736" d="m106.5 44.5-2 2v4h5c.815-.93 1.648-1.93 2.5-3 .374.916.874 1.75 1.5 2.5-1.811 1.04-2.145 2.207-1 3.5v4h-1v-3c-1.291-.237-2.291.096-3 1h-2c.262-1.478-.071-2.811-1-4-.886.825-1.219 1.825-1 3-.617-.11-1.117-.444-1.5-1a24.935 24.935 0 0 1-.5-7c.294-2.981 1.628-3.648 4-2Z"/><path style="opacity:1" fill="#f4f2ef" d="M122.5 47.5c-1.842-1.534-3.175-1.2-4 1 1.353 1.024 2.02 2.357 2 4 .059 2.222 1.225 3.222 3.5 3a19.164 19.164 0 0 0 6.5-2c-.825-.886-1.825-1.219-3-1v-4l2 1a24.93 24.93 0 0 0 8 1c4.91 1.083 5.244 3.083 1 6-.838.342-1.172 1.008-1 2a4.932 4.932 0 0 0-3 .5 480.472 480.472 0 0 0-7 5.5c-6.543 3.815-13.209 3.982-20 .5-1.655-1.444-2.322-3.278-2-5.5 1.705-1.035 3.372-1.035 5 0 1.022-.355 1.689-1.022 2-2v-4h5a40.911 40.911 0 0 1 .5-9c3.15-1.661 4.65-.661 4.5 3Z"/><path style="opacity:1" fill="#635b6b" d="M127.5 48.5v4c1.175-.219 2.175.114 3 1a19.164 19.164 0 0 1-6.5 2c-2.275.222-3.441-.778-3.5-3h2c.448 1.965 1.448 2.298 3 1-.457-.797-1.124-1.13-2-1 .709-.904 1.709-1.237 3-1-.237-1.291.096-2.291 1-3Z"/><path style="opacity:1" fill="#f6f1f8" d="M122.5 52.5h1c.876-.13 1.543.203 2 1-1.552 1.298-2.552.965-3-1Z"/><path style="opacity:1" fill="#32283c" d="M142.5 56.5c-1.333 1.333-2.667 1.333-4 0 4.244-2.917 3.91-4.917-1-6-.963-.864-.963-1.53 0-2 4.771.892 6.438 3.559 5 8Z"/><path style="opacity:1" fill="#e0dbdd" d="M106.5 55.5c.111.617.444 1.117 1 1.5-1.269-.108-2.269.058-3 .5-1.125-.848-1.125-1.848 0-3-.219-1.175.114-2.175 1-3 .929 1.189 1.262 2.522 1 4Z"/><path style="opacity:1" fill="#dbd8da" d="M111.5 57.5c-1.679.215-2.679-.452-3-2 .709-.904 1.709-1.237 3-1v3Z"/><path style="opacity:1" fill="#47414d" d="M100.5 41.5c.654.685.654 1.685 0 3 .247 1.213.914 1.88 2 2-.163 2.357.003 4.69.5 7 .383.556.883.89 1.5 1-1.125 1.152-1.125 2.152 0 3l1 2c-.322 2.222.345 4.056 2 5.5 6.791 3.482 13.457 3.315 20-.5-.906 1.465-2.239 2.465-4 3-.886.825-1.219 1.825-1 3h-2c.111-.617.444-1.117 1-1.5l-10-1c-2.534-.516-4.7-1.683-6.5-3.5a50.505 50.505 0 0 0-6-12c-.667-3-.667-6 0-9 .278-.916.778-1.583 1.5-2Z"/><path style="opacity:1" fill="#847f88" d="M106.5 55.5h2c.321 1.548 1.321 2.215 3 2h1c-.311.978-.978 1.645-2 2-1.628-1.035-3.295-1.035-5 0l-1-2c.731-.442 1.731-.608 3-.5-.556-.383-.889-.883-1-1.5Z"/><path style="opacity:1" fill="#e1ddd6" d="M127.5 64.5c1.528.017 2.028.684 1.5 2-1.571 2.423-3.737 3.756-6.5 4-.219-1.175.114-2.175 1-3 1.761-.535 3.094-1.535 4-3Z"/><path style="opacity:1" fill="#3c2f45" d="M137.5 58.5a324.986 324.986 0 0 1-6 5c-.886.825-1.219 1.825-1 3 2.825-.42 4.991.58 6.5 3 3.414 4.07 5.581 8.736 6.5 14-.958-.453-1.792-1.12-2.5-2-.411-4.735-2.744-8.068-7-10-3.569-1.445-6.736-.779-9.5 2a7.468 7.468 0 0 1-2-3c2.763-.244 4.929-1.577 6.5-4 .528-1.316.028-1.983-1.5-2a480.472 480.472 0 0 1 7-5.5 4.932 4.932 0 0 1 3-.5Z"/><path style="opacity:1" fill="#473752" d="M120.5 70.5c.111.617.444 1.117 1 1.5-2.494 1.946-3.161 4.28-2 7-.928.388-1.595 1.055-2 2a21.542 21.542 0 0 1 1 4.5 437.7 437.7 0 0 0-3 22 46.052 46.052 0 0 1-1.5-8c-.232 1.237-.732 2.237-1.5 3 1.539-4.846 2.206-9.846 2-15-1.322-.17-2.489.163-3.5 1-.769 2.6-.602 5.1.5 7.5a81.309 81.309 0 0 0-8 4.5c2.669-6.362 5.836-13.028 9.5-20 .317 1.8.984 2.134 2 1-.316-4.575 1.517-8.242 5.5-11Z"/><path style="opacity:1" fill="#412a4f" d="M120.5 70.5h2a7.468 7.468 0 0 0 2 3c2.764-2.779 5.931-3.445 9.5-2 4.256 1.932 6.589 5.265 7 10 .708.88 1.542 1.547 2.5 2 2.656 10.567 3.656 21.234 3 32-.111.617-.444 1.117-1 1.5-2.31.497-4.643.663-7 .5a128.323 128.323 0 0 1-1-12 9.86 9.86 0 0 0 6-1 13.116 13.116 0 0 0-7-1 435.997 435.997 0 0 0-2-24 760.364 760.364 0 0 0 0 25c-2.672.448-4.672 1.781-6 4a39.665 39.665 0 0 0-12 3c.363.683.696 1.35 1 2-.617.111-1.117.444-1.5 1a24.935 24.935 0 0 1-.5-7 437.7 437.7 0 0 1 3-22 21.542 21.542 0 0 0-1-4.5c.405-.945 1.072-1.612 2-2-1.161-2.72-.494-5.054 2-7-.556-.383-.889-.883-1-1.5Z"/><path style="opacity:1" fill="#432c50" d="M112.5 102.5c.268 1.599-.066 2.932-1 4-1.306.354-2.306 1.688-3 4a30.758 30.758 0 0 1-7.5 2c-1.792.019-2.292-.314-1.5-1-.704-4.209.629-7.876 4-11a81.309 81.309 0 0 1 8-4.5c-1.102-2.4-1.269-4.9-.5-7.5 1.011-.837 2.178-1.17 3.5-1 .206 5.154-.461 10.154-2 15Z"/><path style="opacity:1" fill="#2f2038" d="M138.5 117.5h-1c.354-2.921-.646-5.254-3-7l2-2c-2.699-1.229-5.365-1.229-8 0 1.328-2.219 3.328-3.552 6-4a760.364 760.364 0 0 1 0-25 435.997 435.997 0 0 1 2 24 13.116 13.116 0 0 1 7 1 9.86 9.86 0 0 1-6 1c.146 4.019.479 8.019 1 12Z"/><path style="opacity:1" fill="#373638" d="M137.5 117.5c.635 9.995 1.301 19.995 2 30l-1 4a34.251 34.251 0 0 1-1.5-8 42.36 42.36 0 0 1-1.5 8.5c1.473.71 2.14 1.876 2 3.5h-5c-.391-3.573-1.391-6.907-3-10 .667 0 1-.333 1-1 .597-.235.93-.735 1-1.5a135.489 135.489 0 0 0-3-15.5c-.817-2.469-1.317-5.135-1.5-8 .014 12.659.181 25.326.5 38a21.435 21.435 0 0 1-7 1c-.478-7.663-.978-15.33-1.5-23-.186 2.536-.686 4.869-1.5 7a130.429 130.429 0 0 1 0-29 43.836 43.836 0 0 0-1-2 39.665 39.665 0 0 1 12-3c2.635-1.229 5.301-1.229 8 0l-2 2c2.354 1.746 3.354 4.079 3 7Z"/><path style="opacity:1" fill="#352c3c" d="M111.5 106.5c-.82 2.312-1.653 4.646-2.5 7-2.308 1.377-3.808 3.377-4.5 6-2.666 1.353-5 3.019-7 5-2.06 1.146-3.06.313-3-2.5a53.577 53.577 0 0 0 3.5-11.5c1.107-1.212 1.607-.879 1.5 1-.792.686-.292 1.019 1.5 1a30.758 30.758 0 0 0 7.5-2c.694-2.312 1.694-3.646 3-4Z"/><path style="opacity:1" fill="#e9e4d7" d="M97.5 124.5c-2.464-2.566-2.13-5.066 1-7.5 2-.667 4-.667 6 0-3.217 1.715-5.55 4.215-7 7.5Z"/><path style="opacity:1" fill="#362f3f" d="M146.5 115.5c.617.111 1.117.444 1.5 1 3.283 6.431 1.45 10.431-5.5 12-2.107-1.413-2.44-3.08-1-5 .61 3.324 2.277 3.824 5 1.5 1.247-1.494 1.247-2.994 0-4.5-1.122 1.13-2.456 1.797-4 2h-3c.665 6.98.998 13.98 1 21v15c1.113 1.446 1.28 3.113.5 5-4.671 4.006-10.004 5.006-16 3a108.761 108.761 0 0 1-9.5 3 7.93 7.93 0 0 1-3.5-1c-1.15-2.254-1.484-4.587-1-7 .671-.752 1.504-1.086 2.5-1a5.727 5.727 0 0 0-1 3c-.426 1.028-.426 2.361 0 4 4.374.471 8.374-.529 12-3 .952-1.545 1.285-3.212 1-5h-5v-1a21.435 21.435 0 0 0 7-1c.609-4.581 1.276-8.581 2-12 1.609 3.093 2.609 6.427 3 10h5c.14-1.624-.527-2.79-2-3.5a42.36 42.36 0 0 0 1.5-8.5 34.251 34.251 0 0 0 1.5 8l1-4a4768.467 4768.467 0 0 1-2-30h1c2.357.163 4.69-.003 7-.5.556-.383.889-.883 1-1.5Z"/><path style="opacity:1" fill="#ebe3d8" d="M141.5 123.5c.667 0 1-.333 1-1 1.544-.203 2.878-.87 4-2 1.247 1.506 1.247 3.006 0 4.5-2.723 2.324-4.39 1.824-5-1.5Z"/><path style="opacity:1" fill="#6a6571" d="M128.5 127.5a135.489 135.489 0 0 1 3 15.5c-.07.765-.403 1.265-1 1.5a110.491 110.491 0 0 1-2-17Z"/><path style="opacity:1" fill="#a88eb5" d="M59.5 139.5c.366 1.195 1.199 1.861 2.5 2 4.266-2.589 8.6-2.589 13 0 2.175-2.023 4.675-3.357 7.5-4a746.004 746.004 0 0 1 2 29 60.93 60.93 0 0 0-11 .5l-3 3c-6.17.032-12.17.865-18 2.5-3.45.744-5.116-.59-5-4-2.76.585-4.427-.415-5-3a64 64 0 0 0 6.5-20c1.301-3.801 3.801-6.468 7.5-8 1.018.693 2.018 1.359 3 2Z"/><path style="opacity:1" fill="#2b1e35" d="M128.5 127.5c.232 5.762.899 11.428 2 17 0 .667-.333 1-1 1-.724 3.419-1.391 7.419-2 12a1579.631 1579.631 0 0 1-.5-38c.183 2.865.683 5.531 1.5 8Z"/><path style="opacity:1" fill="#584066" d="M70.5 143.5c2.235.748 1.902 1.581-1 2.5-4.208 1.854-8.541 2.854-13 3 4.964-1.371 9.63-3.204 14-5.5Z"/><path style="opacity:1" fill="#544f5d" d="M120.5 158.5v1c-.333 1-1 1.667-2 2-1.419-.951-3.085-1.284-5-1a112.33 112.33 0 0 1 5-2 5.576 5.576 0 0 1-1-3v-13c.814-2.131 1.314-4.464 1.5-7 .522 7.67 1.022 15.337 1.5 23Z"/><path style="opacity:1" fill="#dcd1e1" d="M81.5 158.5c3.264 4.439 1.93 6.772-4 7a4.932 4.932 0 0 1 .5-3c1.72-.884 2.886-2.217 3.5-4Z"/><path style="opacity:1" fill="#3a2e48" d="M86.5 158.5c.277 2.948-.056 5.781-1 8.5a62.749 62.749 0 0 0-11 1.5c-1.881 2.076-4.215 3.41-7 4-5.21.281-10.21.281-15 0 5.83-1.635 11.83-2.468 18-2.5l3-3a60.93 60.93 0 0 1 11-.5 746.004 746.004 0 0 0-2-29c-2.825.643-5.325 1.977-7.5 4-4.4-2.589-8.734-2.589-13 0-1.301-.139-2.134-.805-2.5-2h2a53.19 53.19 0 0 1 6.5-2 50.982 50.982 0 0 1 6.5 2c2.069-.285 3.402-1.452 4-3.5 1.667-.667 3.333-.667 5 0a281.7 281.7 0 0 0 3 22.5Z"/><path style="opacity:1" fill="#4a5f66" d="M140.5 143.5c.979 3.125 1.313 6.458 1 10l7 2c.293 3.937-.04 7.77-1 11.5a602.298 602.298 0 0 0-8 4 154.383 154.383 0 0 1-30 4c-1.574-1.826-2.407-3.993-2.5-6.5-5.449 3.578-7.782 2.245-7-4l7.5-7.5a31.284 31.284 0 0 1 10-1.5 5.576 5.576 0 0 0 1 3 112.33 112.33 0 0 0-5 2c-.996-.086-1.829.248-2.5 1-.484 2.413-.15 4.746 1 7a7.93 7.93 0 0 0 3.5 1c3.21-.854 6.376-1.854 9.5-3 5.996 2.006 11.329 1.006 16-3 .78-1.887.613-3.554-.5-5v-15Z"/><path style="opacity:1" fill="#503636" d="M120.5 159.5h5c.285 1.788-.048 3.455-1 5-3.626 2.471-7.626 3.471-12 3-.426-1.639-.426-2.972 0-4 1.797-1.23 3.797-1.896 6-2 1-.333 1.667-1 2-2Z"/><path style="opacity:1" fill="#bdb3ba" d="M113.5 160.5c1.915-.284 3.581.049 5 1-2.203.104-4.203.77-6 2a5.727 5.727 0 0 1 1-3Z"/><path style="opacity:1" fill="#b5a7b2" d="M128.5 160.5c-.432 1.21-1.099 2.21-2 3-.215-1.679.452-2.679 2-3Z"/><path style="opacity:1" fill="#513635" d="M140.5 158.5c.15 3.443-1.517 5.443-5 6-2.606 1.152-5.273 1.318-8 .5-.556-.383-.889-.883-1-1.5.901-.79 1.568-1.79 2-3a63.084 63.084 0 0 1 12-2Z"/><path style="opacity:1" fill="#424250" d="M61.5 139.5h-2a184.223 184.223 0 0 1-3-2c-3.699 1.532-6.199 4.199-7.5 8a64 64 0 0 1-6.5 20c.573 2.585 2.24 3.585 5 3-.116 3.41 1.55 4.744 5 4 4.79.281 9.79.281 15 0-1.109.79-2.442 1.29-4 1.5-5 .667-10 .667-15 0-1.844-2.505-4.178-4.338-7-5.5a18.437 18.437 0 0 1 .5-6 85.885 85.885 0 0 0 7-21c1.818-2.5 4.152-4.166 7-5 2.399.113 4.232 1.113 5.5 3Z"/><path style="opacity:1" fill="#4c6166" d="M86.5 158.5c.617.111 1.117.444 1.5 1a40.827 40.827 0 0 1 1 9c-1.171 1.393-2.671 2.227-4.5 2.5-5.552-.55-10.218 1.117-14 5a20.598 20.598 0 0 1-9-.5c-4.186 1.789-8.52 2.622-13 2.5-2-2.484-4.5-4.317-7.5-5.5-.765-1.566-.598-2.899.5-4 2.822 1.162 5.156 2.995 7 5.5 5 .667 10 .667 15 0 1.558-.21 2.891-.71 4-1.5 2.785-.59 5.119-1.924 7-4a62.749 62.749 0 0 1 11-1.5c.944-2.719 1.277-5.552 1-8.5Z"/></svg>
