<?xml version="1.0" encoding="UTF-8"?>
<svg data-name="Layer 1" viewBox="0 0 860.13 571.15" xmlns="http://www.w3.org/2000/svg">
<path transform="translate(-169.93 -164.43)" d="m605.67 324.95c-7.6693-12.684-16.757-26.228-30.99-30.37-16.482-4.7965-33.413 4.7319-47.775 14.135a1392.2 1392.2 0 0 0-123.89 91.283l0.04331 0.49238q46.226-3.1878 92.451-6.3755c22.265-1.5355 45.296-3.2827 64.972-13.816 7.4665-3.9968 14.745-9.3358 23.206-9.7078 10.512-0.46217 19.677 6.8792 26.88 14.549 42.607 45.371 54.937 114.75 102.74 154.62a1517 1517 0 0 0-107.63-214.81z" fill="#4c566a"/>
<path transform="translate(-169.93 -164.43)" d="m867.57 709.78c-4.7117-5.9496-6.6369-7.343-11.285-13.348q-56.764-73.416-106.71-151.79-33.924-53.23-64.483-108.5-14.549-26.278-28.3-52.969-10.67-20.695-20.865-41.638c-1.9436-3.9878-3.8321-7.9939-5.7112-12.009-4.4279-9.4423-8.7734-18.93-13.439-28.244-5.3169-10.616-11.789-21.745-21.553-28.877a29.405 29.405 0 0 0-15.319-5.8946c-7.948-0.51336-15.282 2.7686-22.176 6.353-50.439 26.301-97.659 59.276-140.37 96.798a730.78 730.78 0 0 0-114.04 126.59c-1.008 1.4393-3.3916 0.06417-2.3742-1.3842q6.0093-8.4982 12.257-16.813a734.82 734.82 0 0 1 187.6-174.99q18.248-11.826 37.183-22.542c6.3621-3.6028 12.752-7.1597 19.251-10.497 6.3715-3.2727 13.137-6.2155 20.416-6.3255 24.77-0.385 37.595 27.667 46.405 46.542q4.1528 8.9106 8.4064 17.766 16.075 33.621 33.387 66.628 10.685 20.379 21.837 40.52 34.707 62.718 73.779 122.9c34.506 53.143 68.737 100.09 108.05 149.78 1.0819 1.3752-0.85226 3.337-1.9436 1.9435z" fill="#4c566a"/>
<path transform="translate(-169.93 -164.43)" d="m414.92 355.8c-1.4391-1.6043-2.8693-3.2086-4.3178-4.8128-11.422-12.633-23.679-25.118-39.364-32.361a57.11 57.11 0 0 0-23.927-5.5462c-8.5621 0.02753-16.932 2.2735-24.843 5.4179-3.7403 1.4943-7.3983 3.1902-11.001 4.9961-4.1163 2.0718-8.1593 4.2812-12.183 6.5088q-11.331 6.2704-22.368 13.091-21.961 13.572-42.546 29.216-10.671 8.1131-20.902 16.758-9.5156 8.0305-18.646 16.492c-1.3017 1.2009-3.2453-0.74255-1.9436-1.9435 1.6043-1.4943 3.2269-2.9794 4.8496-4.4461q6.8755-6.2155 13.971-12.193 12.939-10.918 26.549-20.993 21.163-15.676 43.783-29.225 11.304-6.7654 22.918-12.963c2.3379-1.2468 4.7032-2.466 7.0957-3.6211a113.12 113.12 0 0 1 16.868-6.8663 60.006 60.006 0 0 1 25.476-2.5026 66.327 66.327 0 0 1 23.505 8.1314c15.401 8.6081 27.346 21.919 38.97 34.909 1.1737 1.3201-0.7609 3.2727-1.9435 1.9526z" fill="#4c566a"/>
<path transform="translate(-169.93 -164.43)" d="m730.48 486.71 55.228-20.2c5.9676-2.1827 11.921-4.6675 18.09-6.2304a28.539 28.539 0 0 1 16.374 0.20862 37.738 37.738 0 0 1 12.771 7.9167 103.64 103.64 0 0 1 10.475 11.186c3.9893 4.7943 7.9197 9.6388 11.868 14.467q24.441 29.891 48.563 60.041 24.121 30.15 47.92 60.556 23.857 30.48 47.385 61.216 2.8823 3.7652 5.7597 7.5342c1.0598 1.3881 3.4495 0.01962 2.3747-1.3881q-23.702-31.044-47.735-61.835-24.092-30.864-48.516-61.466-24.424-30.601-49.179-60.937-6.1671-7.5576-12.354-15.099c-3.4795-4.2407-6.9198-8.5272-10.736-12.474-7.0054-7.2452-15.758-13.648-26.234-13.822-6.1597-0.10214-12.121 1.8525-17.844 3.9229-6.1697 2.232-12.325 4.5057-18.486 6.7594l-46.453 16.991c-1.6488 0.603-0.93651 3.2619 0.73111 2.652z" fill="#4c566a"/>
<path transform="translate(-169.93 -164.43)" d="m366.38 334.53c-18.754-9.6387-42.771-7.7509-60.005 4.2912a855.85 855.85 0 0 1 97.371 22.726c-13.283-7.7839-23.673-19.98-37.365-27.017z" fill="#4c566a"/>
<path transform="translate(-169.93 -164.43)" d="m306.19 338.78-3.6104 2.9346c1.2212-1.0271 2.4908-1.9901 3.795-2.9014-0.0616-0.01063-0.12298-0.02255-0.18458-0.03318z" fill="#4c566a"/>
<path transform="translate(-169.93 -164.43)" d="m831.55 486.85c-3.6328-4.4221-7.5605-9.0522-12.994-10.848l-5.0731 0.20008a575.44 575.44 0 0 0 153.27 175.22q-67.6-82.286-135.2-164.57z" fill="#4c566a"/>
<path transform="translate(-169.93 -164.43)" d="m516.08 450.37a37.481 37.481 0 0 0 14.931 20.959c2.8202 1.9201 6.1568 3.7621 7.1216 7.0346a8.3786 8.3786 0 0 1-0.87362 6.1499 24.884 24.884 0 0 1-3.8613 5.0414l-0.13667 0.512c-6.9984-4.1473-13.656-9.3934-17.522-16.551s-4.4055-16.539 0.34116-23.145" fill="#4c566a"/>
<path transform="translate(-169.93 -164.43)" d="m749.08 653.37a37.481 37.481 0 0 0 14.931 20.959c2.8202 1.9201 6.1568 3.7621 7.1216 7.0346a8.3786 8.3786 0 0 1-0.87362 6.1499 24.884 24.884 0 0 1-3.8613 5.0414l-0.13667 0.512c-6.9984-4.1473-13.656-9.3934-17.522-16.551s-4.4055-16.539 0.34116-23.145" fill="#4c566a"/>
<path transform="translate(-169.93 -164.43)" d="m284.08 639.37a37.481 37.481 0 0 0 14.931 20.959c2.8202 1.9201 6.1568 3.7621 7.1216 7.0346a8.3786 8.3786 0 0 1-0.87362 6.1499 24.884 24.884 0 0 1-3.8613 5.0414l-0.13667 0.512c-6.9984-4.1473-13.656-9.3934-17.522-16.551s-4.4055-16.539 0.34116-23.145" fill="#4c566a"/>
<circle cx="649.25" cy="51" r="51" fill="#4c566a"/>
<path transform="translate(-169.93 -164.43)" d="m911.22 176.3c-24.717-3.3409-52.935 10.019-59.341 34.124a21.597 21.597 0 0 0-41.094 2.1087l2.8297 2.0267a372.27 372.27 0 0 0 160.66-0.72638c-17.193-18.069-38.337-34.192-63.054-37.533z" fill="#4c566a"/>
<path transform="translate(-169.93 -164.43)" d="m805.22 244.3c-24.717-3.3409-52.935 10.019-59.341 34.124a21.597 21.597 0 0 0-41.094 2.1087l2.8297 2.0267a372.27 372.27 0 0 0 160.66-0.72638c-17.193-18.069-38.337-34.192-63.054-37.533z" fill="#4c566a"/>
<path transform="translate(-169.93 -164.43)" d="m1020.9 257.15a0.98189 0.98189 0 0 1-0.30176-0.04688c-264.41-83.618-497.44-72.684-646.38-48.786-20.269 3.251-40.591 7.0059-60.404 11.161-5.0581 1.0596-10.306 2.1953-15.597 3.3779-6.3188 1.4072-12.554 2.8564-18.532 4.3057q-3.873 0.917-7.5947 1.8486c-3.7583 0.92773-7.5718 1.8945-11.66 2.957-4.5679 1.1777-9.209 2.4131-13.797 3.6719a0.44239 0.44239 0 0 1-0.05127 0.01465l4.9e-4 1e-3c-5.1826 1.415-10.338 2.8711-15.323 4.3252-2.6982 0.77929-5.3037 1.5478-7.7993 2.3066-0.2788 0.07715-0.52587 0.15136-0.77636 0.22754l-0.53614 0.16308c-0.31054 0.09473-0.61718 0.1875-0.92382 0.27539l-0.01953 0.00586 4.8e-4 1e-3 -0.81152 0.252c-0.96777 0.293-1.9121 0.5791-2.8408 0.86426-24.545 7.5664-38.038 12.949-38.171 13.002a1 1 0 1 1-0.74414-1.8564c0.13428-0.05274 13.693-5.4629 38.328-13.058 0.93213-0.28613 1.8789-0.57226 2.8496-0.86621l0.7539-0.23438c0.02588-0.00976 0.05176-0.01757 0.07813-0.02539 0.30518-0.08691 0.60986-0.17968 0.91943-0.27343l0.53711-0.16309c0.26758-0.08105 0.53125-0.16113 0.80127-0.23535 2.4785-0.75391 5.0928-1.5244 7.7978-2.3066 4.9873-1.4551 10.147-2.9111 15.334-4.3281 0.01611-0.00586 0.03271-0.00976 0.04883-0.01464v-1e-3c4.6045-1.2627 9.2627-2.5029 13.845-3.6846 4.0942-1.0635 7.915-2.0322 11.68-2.9619q3.7376-0.93017 7.6094-1.8525c5.9854-1.4512 12.233-2.9024 18.563-4.3125 5.2993-1.1836 10.556-2.3223 15.622-3.3828 19.843-4.1621 40.198-7.9228 60.497-11.179 149.15-23.932 382.52-34.884 647.3 48.854a0.99974 0.99974 0 0 1-0.30078 1.9531z" fill="#4c566a"/>
<path transform="translate(-169.93 -164.43)" d="M432.92309,584.266a6.72948,6.72948,0,0,0-1.7-2.67,6.42983,6.42983,0,0,0-.92-.71c-2.61-1.74-6.51-2.13-8.99,0a5.81012,5.81012,0,0,0-.69.71q-1.11,1.365-2.28,2.67c-1.28,1.46-2.59,2.87-3.96,4.24-.39.38-.78.77-1.18,1.15-.23.23-.46.45-.69.67-.88.84-1.78,1.65-2.69,2.45-.48.43-.96.85-1.45,1.26-.73.61-1.46,1.22-2.2,1.81-.07.05-.14.1-.21.16-.02.01-.03.03-.05.04-.01,0-.02,0-.03.02a.17861.17861,0,0,0-.07.05c-.22.15-.37.25-.48.34.04-.01995.08-.05.12-.07-.18.14-.37.28-.55.42-1.75,1.29-3.54,2.53-5.37,3.69a99.21022,99.21022,0,0,1-14.22,7.55c-.33.13-.67.27-1.01.4a85.96993,85.96993,0,0,1-40.85,6.02q-2.13008-.165-4.26-.45c-1.64-.24-3.27-.53-4.89-.86a97.93186,97.93186,0,0,1-18.02-5.44,118.65185,118.65185,0,0,1-20.66-12.12c-1-.71-2.01-1.42-3.02-2.11,1.15-2.82,2.28-5.64,3.38-8.48.55-1.37,1.08-2.74,1.6-4.12,4.09-10.63,7.93-21.36,11.61-32.13q5.58-16.365,10.53-32.92.51-1.68.99-3.36,2.595-8.745,4.98-17.53c.15-.56994.31-1.12994.45-1.7q.68994-2.52,1.35-5.04c1-3.79-1.26-8.32-5.24-9.23a7.63441,7.63441,0,0,0-9.22,5.24c-.43,1.62-.86,3.23-1.3,4.85q-3.165,11.74494-6.66,23.41-.51,1.68-1.02,3.36-7.71,25.41-16.93,50.31-1.11,3.015-2.25,6.01c-.37.98-.74,1.96-1.12,2.94-.73,1.93-1.48,3.86-2.23,5.79-.43006,1.13-.87006,2.26-1.31,3.38-.29.71-.57,1.42-.85,2.12a41.80941,41.80941,0,0,0-8.81-2.12l-.48-.06a27.397,27.397,0,0,0-7.01.06,23.91419,23.91419,0,0,0-17.24,10.66c-4.77,7.51-4.71,18.25,1.98,24.63,6.89,6.57,17.32,6.52,25.43,2.41a28.35124,28.35124,0,0,0,10.52-9.86,50.56939,50.56939,0,0,0,2.74-4.65c.21.14.42.28.63.43.8.56,1.6,1.13,2.39,1.69a111.73777,111.73777,0,0,0,14.51,8.91,108.35887,108.35887,0,0,0,34.62,10.47c.27.03.53.07.8.1,1.33.17,2.67.3,4.01.41a103.78229,103.78229,0,0,0,55.58-11.36q2.175-1.125,4.31-2.36,3.315-1.92,6.48-4.08c1.15-.78,2.27-1.57,3.38-2.4a101.04244,101.04244,0,0,0,13.51-11.95q2.35491-2.475,4.51-5.11005a8.0612,8.0612,0,0,0,2.2-5.3A7.5644,7.5644,0,0,0,432.92309,584.266Zm-165.59,23.82c.21-.15.42-.31.62-.47C267.89312,607.766,267.60308,607.936,267.33312,608.086Zm3.21-3.23c-.23.26-.44.52-.67.78a23.36609,23.36609,0,0,1-2.25,2.2c-.11.1-.23.2-.35.29a.00976.00976,0,0,0-.01.01,3.80417,3.80417,0,0,0-.42005.22q-.645.39-1.31994.72a17.00459,17.00459,0,0,1-2.71.75,16.79925,16.79925,0,0,1-2.13.02h-.02a14.82252,14.82252,0,0,1-1.45-.4c-.24-.12-.47-.25994-.7-.4-.09-.08-.17005-.16-.22-.21a2.44015,2.44015,0,0,1-.26995-.29.0098.0098,0,0,0-.01-.01c-.11005-.2-.23005-.4-.34-.6a.031.031,0,0,1-.01-.02c-.08-.25-.15-.51-.21-.77a12.51066,12.51066,0,0,1,.01-1.37,13.4675,13.4675,0,0,1,.54-1.88,11.06776,11.06776,0,0,1,.69-1.26c.02-.04.12-.2.23-.38.01-.01.01-.01.01-.02.15-.17.3-.35.46-.51.27-.3.56-.56.85-.83a18.02212,18.02212,0,0,1,1.75-1.01,19.48061,19.48061,0,0,1,2.93-.79,24.98945,24.98945,0,0,1,4.41.04,30.30134,30.30134,0,0,1,4.1,1.01,36.94452,36.94452,0,0,1-2.77,4.54C270.6231,604.746,270.58312,604.806,270.54308,604.856Zm-11.12-3.29a2.18029,2.18029,0,0,1-.31.38995A1.40868,1.40868,0,0,1,259.42309,601.566Z" fill="#B48EAD"/>
<path transform="translate(-169.93 -164.43)" d="M402.86309,482.136q-.13494,4.71-.27,9.42-.285,10.455-.59,20.92-.315,11.775-.66,23.54-.165,6.07507-.34,12.15-.465,16.365-.92,32.72c-.03,1.13-.07,2.25-.1,3.38q-.225,8.11506-.45,16.23-.255,8.805-.5,17.61-.18,6.59994-.37,13.21-1.34994,47.895-2.7,95.79a7.64844,7.64844,0,0,1-7.5,7.5,7.56114,7.56114,0,0,1-7.5-7.5q.75-26.94,1.52-53.88.675-24.36,1.37-48.72.225-8.025.45-16.06.345-12.09.68-24.18c.03-1.13.07-2.25.1-3.38.02-.99.05-1.97.08-2.96q.66-23.475,1.32-46.96.27-9.24.52-18.49.3-10.545.6-21.08c.09-3.09.17005-6.17.26-9.26a7.64844,7.64844,0,0,1,7.5-7.5A7.56116,7.56116,0,0,1,402.86309,482.136Z" fill="#B48EAD"/>
<path transform="translate(-169.93 -164.43)" d="m814.29 484.22a893.24 893.24 0 0 1-28.161 87.941c-3.007 7.9464-6.0832 15.877-9.3715 23.712l0.75606-1.7916a54.583 54.583 0 0 1-5.5895 10.612q-0.22935 0.32119-0.46685 0.63642 1.1656-1.4904 0.4428-0.589c-0.25405 0.30065-0.5049 0.60219-0.7676 0.89546a23.664 23.664 0 0 1-2.2489 2.2032q-0.30139 0.25767-0.61188 0.5043l0.93783-0.729c-0.10884 0.25668-0.87275 0.59747-1.1107 0.74287a18.254 18.254 0 0 1-2.4048 1.2185l1.7916-0.75606a19.086 19.086 0 0 1-4.2312 1.1607l1.9938-0.26791a17.021 17.021 0 0 1-4.2978 0.046l1.9938 0.2679a14.002 14.002 0 0 1-3.4049-0.917l1.7916 0.75606a12.012 12.012 0 0 1-1.6788-0.89614c-0.27135-0.17688-1.1053-0.80852-0.01487 0.02461 1.1334 0.86595 0.14562 0.07434-0.08763-0.15584-0.19427-0.19171-0.36962-0.4-0.55974-0.595-0.88208-0.90454 0.99637 1.5566 0.39689 0.49858a18.182 18.182 0 0 1-0.87827-1.6367l0.75606 1.7916a11.925 11.925 0 0 1-0.728-2.6514l0.26791 1.9938a13.651 13.651 0 0 1-0.00316-3.4049l-0.2679 1.9938a15.964 15.964 0 0 1 0.99486-3.6801l-0.75606 1.7916a16.729 16.729 0 0 1 1.1779-2.2985 6.7293 6.7293 0 0 1 0.72851-1.0714c0.04915 0.01594-1.2686 1.5128-0.56937 0.757 0.1829-0.19767 0.354-0.40592 0.539-0.602 0.29617-0.31382 0.61354-0.60082 0.92561-0.89791 1.0446-0.99442-1.4619 0.966-0.25652 0.17907a19.049 19.049 0 0 1 2.7492-1.4992l-1.7916 0.75606a20.311 20.311 0 0 1 4.9952-1.3398l-1.9938 0.2679a25.628 25.628 0 0 1 6.4606 0.07647l-1.9938-0.2679a33.211 33.211 0 0 1 7.8918 2.2199l-1.7916-0.75606c5.3896 2.3138 10.163 5.7493 14.928 9.118a111.95 111.95 0 0 0 14.506 8.9065 108.39 108.39 0 0 0 34.622 10.474 103.93 103.93 0 0 0 92.586-36.752 8.0777 8.0777 0 0 0 2.1967-5.3033 7.6323 7.6323 0 0 0-2.1967-5.3033c-2.7515-2.5259-7.9493-3.239-10.607 0a95.636 95.636 0 0 1-8.1066 8.7269q-2.0174 1.914-4.1423 3.7098-1.2136 1.0259-2.4609 2.0112c-0.3934 0.31081-1.6186 1.1381 0.26309-0.19744-0.43135 0.30614-0.845 0.64036-1.2706 0.95478a99.269 99.269 0 0 1-20.332 11.565l1.7916-0.75606a96.836 96.836 0 0 1-24.171 6.6225l1.9938-0.2679a97.643 97.643 0 0 1-25.754-0.03807l1.9938 0.2679a99.8 99.8 0 0 1-24.857-6.7703l1.7916 0.75607a116.03 116.03 0 0 1-21.736-12.591 86.877 86.877 0 0 0-11.113-6.9942 42.824 42.824 0 0 0-14.438-4.3885c-9.4388-1.1108-19.057 2.5656-24.246 10.72-4.7756 7.5048-4.7139 18.244 1.9737 24.625 6.8877 6.5725 17.318 6.5169 25.436 2.4057 7.8174-3.9595 12.513-12.185 15.815-19.942 7.4311-17.455 14.01-35.314 20.14-53.263q9.0965-26.637 16.499-53.813 0.91661-3.3658 1.8068-6.7387c1.001-3.7887-1.2609-8.32-5.2383-9.2259a7.6332 7.6332 0 0 0-9.2259 5.2383z" fill="#B48EAD"/>
<path transform="translate(-169.93 -164.43)" d="m889.12 482.14-5.385 191.09-1.5185 53.884a7.5646 7.5646 0 0 0 7.5 7.5 7.6492 7.6492 0 0 0 7.5-7.5l2.6996-95.793 4.204-149.18a7.5646 7.5646 0 0 0-7.5-7.5 7.6492 7.6492 0 0 0-7.5 7.5z" fill="#B48EAD"/>
<path transform="translate(-169.93 -164.43)" d="m629.53 700.36h2.3288v-106.04h54.329v-2.3229h-54.329v-44.744h41.956q-0.92256-1.1734-1.8989-2.3169h-40.057v-29.553c-0.7703-0.32846-1.5466-0.64493-2.3288-0.9435v30.496h-45.652v-37.865c-0.78227 0.03583-1.5526 0.08959-2.3289 0.15527v37.71h-36.42v-28.251c-0.78227 0.34636-1.5526 0.71061-2.3169 1.0928v27.158h-30.616v2.3169h30.616v44.744h-30.616v2.3229h30.616v106.04h2.3169v-106.04a36.413 36.413 0 0 1 36.42 36.42v69.622h2.3289v-106.04h45.652zm-84.401-108.36v-44.744h36.42v44.744zm38.749 0v-44.744h0.91362a44.741 44.741 0 0 1 44.738 44.744z" fill="#4c566a"/>
<path transform="translate(-169.93 -164.43)" d="M615.30309,668.566a63.05854,63.05854,0,0,1-20.05,33.7c-.74.64-1.48,1.26-2.25,1.87q-2.805.25506-5.57.52c-1.53.14-3.04.29-4.54.43l-.27.03-.19-1.64-.76-6.64a37.623,37.623,0,0,1-3.3-32.44c2.64-7.12,7.42-13.41,12.12-19.65,6.49-8.62,12.8-17.14,13.03-27.65a60.54415,60.54415,0,0,1,7.9,13.33,16.432,16.432,0,0,0-5.12,3.76995c-.41.45-.82,1.08-.54,1.62006.24.46.84.57,1.36.62994,1.25.13,2.51.26,3.76.39,1,.11,2,.21,3,.32a63.99025,63.99025,0,0,1,2.45,12.18A61.18851,61.18851,0,0,1,615.30309,668.566Z" fill="#B48EAD"/>
<path transform="translate(-169.93 -164.43)" d="M648.50311,642.356c-5.9,4.29-9.35,10.46-12.03,17.26a16.62776,16.62776,0,0,0-7.17,4.58c-.41.45-.82,1.08-.54,1.62006.24.46.84.57,1.36.62994,1.25.13,2.51.26,3.76.39-2.68,8.04-5.14,16.36-9.88,23.15a36.98942,36.98942,0,0,1-12.03,10.91,38.49166,38.49166,0,0,1-4.02,1.99q-7.62.585-14.95,1.25-2.805.25506-5.57.52c-1.53.14-3.04.29-4.54.43q-.015-.825,0-1.65a63.30382,63.30382,0,0,1,15.25-39.86c.45-.52.91-1.03,1.38-1.54a61.7925,61.7925,0,0,1,16.81-12.7A62.65425,62.65425,0,0,1,648.50311,642.356Z" fill="#4c566a"/>
<path transform="translate(-169.93 -164.43)" d="M589.16308,699.526l-1.15,3.4-.58,1.73c-1.53.14-3.04.29-4.54.43l-.27.03c-1.66.17-3.31.34-4.96.51-.43-.5-.86-1.01-1.28-1.53a62.03045,62.03045,0,0,1,8.07-87.11c-1.32,6.91.22,13.53,2.75,20.1-.27.11-.53.22-.78.34a16.432,16.432,0,0,0-5.12,3.76995c-.41.45-.82,1.08-.54,1.62006.24.46.84.57,1.36.62994,1.25.13,2.51.26,3.76.39,1,.11,2,.21,3,.32q.705.075,1.41.15c.07.15.13.29.2.44,2.85,6.18,5.92,12.39,7.65,18.83a43.66591,43.66591,0,0,1,1.02,4.91A37.604,37.604,0,0,1,589.16308,699.526Z" fill="#4c566a"/>
<path transform="translate(-169.93 -164.43)" d="m689.82 554.49c-8.6088-16.792-21.946-30.921-37.632-41.304a114.24 114.24 0 0 0-52.563-18.38q-3.6904-0.33535-7.399-0.39281c-2.9214-0.04371-46.866 12.632-61.587 22.982a114.29 114.29 0 0 0-35.333 39.527 102.5 102.5 0 0 0-12.126 51.633 113.56 113.56 0 0 0 14.703 51.476 110.48 110.48 0 0 0 36.444 38.746c15.338 9.7865 30.745 35.736 48.854 36.652 18.246 0.923 39.054-23.555 55.695-30.987a104.43 104.43 0 0 0 41.726-34.005 110.25 110.25 0 0 0 19.599-48.948c2.5737-18.083 1.3742-36.733-4.8012-54.016a111.86 111.86 0 0 0-5.5802-12.983c-1.7796-3.5052-6.996-4.7959-10.261-2.6906a7.6798 7.6798 0 0 0-2.6906 10.261q1.5677 3.0877 2.9154 6.2776l-0.75606-1.7916a101.15 101.15 0 0 1 6.8764 25.538l-0.26791-1.9938a109.23 109.23 0 0 1-0.06613 28.683l0.26791-1.9938a109.73 109.73 0 0 1-7.5546 27.674l0.75606-1.7916a104.21 104.21 0 0 1-6.6715 13.098q-1.9231 3.1856-4.0806 6.2216c-0.63172 0.8881-1.2829 1.761-1.939 2.6311-0.85625 1.1356 1.1669-1.4832 0.28228-0.36941-0.15068 0.18972-0.30049 0.3801-0.45182 0.5693q-0.68121 0.85165-1.3818 1.6876a93.613 93.613 0 0 1-10.176 10.384q-1.3662 1.1923-2.7779 2.3312c-0.46871 0.37832-0.932 0.77269-1.4208 1.1247 0.01861-0.0134 1.5796-1.1994 0.65556-0.511-0.2905 0.21644-0.57851 0.43619-0.86961 0.65184q-2.9099 2.1558-5.9743 4.092a103.49 103.49 0 0 1-14.756 7.7131l1.7916-0.75606a109.21 109.21 0 0 1-27.597 7.5515l1.9938-0.26791a108.15 108.15 0 0 1-28.589 0.0506l1.9938 0.2679a99.835 99.835 0 0 1-25.095-6.7845l1.7916 0.75607a93.643 93.643 0 0 1-13.416-6.9909q-3.1744-2-6.1836-4.2474c-0.2862-0.21359-0.56992-0.43038-0.855-0.64549-0.9155-0.69088 0.65765 0.50965 0.67021 0.51787a19.169 19.169 0 0 1-1.535-1.2247q-1.4535-1.1836-2.8614-2.4218a101.99 101.99 0 0 1-10.493-10.709q-1.2131-1.4338-2.3741-2.9105c-0.33524-0.4263-0.9465-1.2903 0.40424 0.5289-0.17775-0.23939-0.36206-0.47414-0.54159-0.71223q-0.64657-0.85751-1.2757-1.7279-2.203-3.048-4.1879-6.2459a109.29 109.29 0 0 1-7.8054-15.108l0.75606 1.7916a106.59 106.59 0 0 1-7.3404-26.837l0.26791 1.9938a97.866 97.866 0 0 1-0.04843-25.636l-0.2679 1.9938a94.673 94.673 0 0 1 6.5946-23.959l-0.75606 1.7916a101.56 101.56 0 0 1 7.1952-13.856q2.0655-3.3233 4.3777-6.4847 0.52528-0.71832 1.0624-1.4279c0.324-0.4279 1.215-1.4933-0.30537 0.38842 0.14906-0.18449 0.29252-0.37428 0.43942-0.56041q1.2688-1.6076 2.5996-3.1649a107.4 107.4 0 0 1 10.883-11.021q1.4741-1.2917 2.9946-2.5291 0.6909-0.56218 1.3911-1.1128c0.18664-0.14673 0.37574-0.29073 0.56152-0.43858-1.9974 1.5895-0.555 0.43261-0.10157 0.09288q3.1339-2.3483 6.4353-4.4613a103.64 103.64 0 0 1 15.387-8.1079l-1.7916 0.75606c7.7601-3.2584 42.141-10.949 48.394-10.11l-1.9938-0.26791a106.22 106.22 0 0 1 26.72 7.3824l-1.7916-0.75606a110.31 110.31 0 0 1 12.6 6.3292q3.0434 1.784 5.9674 3.7625 1.3835 0.93658 2.7381 1.915 0.677 0.48917 1.3463 0.98885c0.24789 0.185 0.49386 0.37253 0.74135 0.558 1.0392 0.779-1.4315-1.1281-0.34209-0.26655a110.84 110.84 0 0 1 10.368 9.2532q2.401 2.445 4.6369 5.0452 1.1466 1.3342 2.2464 2.7076c0.36436 0.45495 1.6051 2.101 0.08448 0.08457 0.37165 0.49285 0.74744 0.98239 1.1144 1.4788a97.977 97.977 0 0 1 8.3916 13.538c1.7932 3.4978 6.9868 4.8019 10.261 2.6906a7.6767 7.6767 0 0 0 2.6906-10.261z" fill="#B48EAD"/>
<path transform="translate(-169.93 -164.43)" d="m602.43 676.88a3.7798 3.7798 0 0 1-2.7394-6.5514c0.09531-0.37882 0.16368-0.65085 0.259-1.0297q-0.05115-0.12366-0.1029-0.24717c-3.4799-8.2977-25.685 14.833-26.645 22.632a30.029 30.029 0 0 0 0.52714 10.328 120.39 120.39 0 0 1-10.952-50.003 116.2 116.2 0 0 1 0.72078-12.963q0.59712-5.293 1.6568-10.511a121.79 121.79 0 0 1 24.152-51.616c6.8738 0.38364 12.898-0.66348 13.48-13.985 0.10346-2.3697 1.8611-4.4216 2.2484-6.756-0.65621 0.08607-1.3232 0.13985-1.9794 0.18285-0.20444 0.0107-0.41958 0.02149-0.624 0.03228l-0.07709 0.00346a3.745 3.745 0 0 1-3.0757-6.1012q0.425-0.52305 0.85054-1.0456c0.43036-0.53793 0.87143-1.0651 1.3017-1.6029a1.865 1.865 0 0 0 0.13986-0.16144c0.49494-0.61322 0.98971-1.2156 1.4846-1.8288a10.829 10.829 0 0 0-3.5501-3.4317c-4.9594-2.9046-11.801-0.89293-15.384 3.5931-3.5931 4.486-4.2708 10.779-3.023 16.384a43.398 43.398 0 0 0 6.003 13.383c-0.269 0.34429-0.54872 0.67779-0.81765 1.0221a122.57 122.57 0 0 0-12.794 20.268c1.0163-7.9386-11.412-36.608-16.218-42.681-5.773-7.2941-17.611-4.1108-18.628 5.1356q-0.01476 0.13428-0.02884 0.26849 1.0708 0.60411 2.0964 1.2824a5.1271 5.1271 0 0 1-2.0671 9.3303l-0.10452 0.01613c-9.5557 13.644 21.077 49.155 28.745 41.181a125.11 125.11 0 0 0-6.7345 31.693 118.66 118.66 0 0 0 0.08607 19.16l-0.03231-0.22593c-1.7037-13.882-30.931-34.523-39.466-32.803-4.9168 0.99041-9.7595 0.76525-9.0129 5.7248q0.01788 0.11874 0.03635 0.2375a34.442 34.442 0 0 1 3.862 1.861q1.0708 0.60423 2.0964 1.2824a5.1271 5.1271 0 0 1-2.0671 9.3304l-0.10464 0.01606c-0.07528 0.01079-0.13987 0.02157-0.21507 0.03237-4.3497 14.966 27.907 39.12 47.518 31.435h0.01081a125.07 125.07 0 0 0 8.402 24.528h30.015c0.10765-0.3335 0.20443-0.67779 0.3013-1.0113a34.102 34.102 0 0 1-8.3052-0.49477c2.2269-2.7326 4.4538-5.4866 6.6807-8.2191a1.8612 1.8612 0 0 0 0.13986-0.16135c1.1296-1.3985 2.2699-2.7863 3.3995-4.1848l6.1e-4 -0.00173a49.952 49.952 0 0 0-1.4637-12.725zm-34.371-67.613 0.0158-0.02133-0.0158 0.04282zm-6.6483 59.932-0.25822-0.58084c0.01079-0.41957 0.01079-0.83914 0-1.2694 0-0.11845-0.0215-0.23672-0.0215-0.35508 0.09678 0.74228 0.18285 1.4846 0.29042 2.2269z" fill="#B48EAD"/>
<circle cx="95.249" cy="439" r="11" fill="#B48EAD"/>
<circle cx="227.25" cy="559" r="11" fill="#B48EAD"/>
<circle cx="728.25" cy="559" r="11" fill="#B48EAD"/>
<circle cx="755.25" cy="419" r="11" fill="#B48EAD"/>
<circle cx="723.25" cy="317" r="11" fill="#B48EAD"/>
<path transform="translate(-169.93 -164.43)" d="m434.18 583.43a10.949 10.949 0 1 1-0.21-2.16 10.992 10.992 0 0 1 0.21 2.16z" fill="#B48EAD"/>
<circle cx="484.25" cy="349" r="11" fill="#B48EAD"/>
<path transform="translate(-169.93 -164.43)" d="m545.18 513.43a10.949 10.949 0 1 1-0.21-2.16 10.992 10.992 0 0 1 0.21 2.16z" fill="#B48EAD"/>
<path transform="translate(-169.93 -164.43)" d="m403.18 481.43a10.949 10.949 0 1 1-0.21-2.16 10.992 10.992 0 0 1 0.21 2.16z" fill="#B48EAD"/>
<circle cx="599.25" cy="443" r="11" fill="#B48EAD"/>
<circle cx="426.25" cy="338" r="16" fill="#B48EAD"/>
<path transform="translate(-169.93 -164.43)" d="m1028.9 735.27-857.75 0.30733a1.1907 1.1907 0 1 1 0-2.3814l857.75-0.30734a1.1907 1.1907 0 0 1 0 2.3814z" fill="#4c566a"/>
</svg>
